<?xml version="1.0" encoding="UTF-8" standalone="no"?>
<svg
   xmlns:dc="http://purl.org/dc/elements/1.1/"
   xmlns:cc="http://creativecommons.org/ns#"
   xmlns:rdf="http://www.w3.org/1999/02/22-rdf-syntax-ns#"
   xmlns:svg="http://www.w3.org/2000/svg"
   xmlns="http://www.w3.org/2000/svg"
   xmlns:sodipodi="http://sodipodi.sourceforge.net/DTD/sodipodi-0.dtd"
   xmlns:inkscape="http://www.inkscape.org/namespaces/inkscape"
   version="1.1"
   width="595.2756"
   height="841.8898"
   id="svg9"
   sodipodi:docname="vos-a-spse-logo-znak.svg"
   inkscape:version="1.0.2 (e86c870879, 2021-01-15, custom)">
  <title
     id="title868">Logo školy bez textu</title>
  <metadata
     id="metadata15">
    <rdf:RDF>
      <cc:Work
         rdf:about="">
        <dc:format>image/svg+xml</dc:format>
        <dc:type
           rdf:resource="http://purl.org/dc/dcmitype/StillImage" />
        <dc:title>Logo školy bez textu</dc:title>
      </cc:Work>
    </rdf:RDF>
  </metadata>
  <defs
     id="defs13">
    <inkscape:perspective
       sodipodi:type="inkscape:persp3d"
       inkscape:vp_x="0 : 526.18109 : 1"
       inkscape:vp_y="0 : 1000 : 0"
       inkscape:vp_z="744.09448 : 526.18109 : 1"
       inkscape:persp3d-origin="372.04724 : 350.78739 : 1"
       id="perspective9" />
    <inkscape:perspective
       id="perspective2413"
       inkscape:persp3d-origin="271.32874 : 121.57086 : 1"
       inkscape:vp_z="542.65747 : 182.35629 : 1"
       inkscape:vp_y="0 : 1000 : 0"
       inkscape:vp_x="0 : 182.35629 : 1"
       sodipodi:type="inkscape:persp3d" />
  </defs>
  <sodipodi:namedview
     pagecolor="#ffffff"
     bordercolor="#666666"
     borderopacity="1"
     objecttolerance="10"
     gridtolerance="10"
     guidetolerance="10"
     inkscape:pageopacity="0"
     inkscape:pageshadow="2"
     inkscape:window-width="2210"
     inkscape:window-height="1262"
     id="namedview11"
     showgrid="false"
     inkscape:zoom="0.72231764"
     inkscape:cx="-8.2939386"
     inkscape:cy="386.41717"
     inkscape:window-x="-11"
     inkscape:window-y="-11"
     inkscape:window-maximized="1"
     inkscape:current-layer="Layer1000" />
  <g
     id="Layer1000">
    <g
       id="g2416"
       transform="translate(170.31372,195.59377)"
       style="fill:#4781d0;fill-opacity:1">
      <path
         id="path2404"
         d="m 38.325183,223.62324 v 3.0185 h 3.103322 3.103323 3.103322 3.086364 3.103323 3.086364 3.086364 3.069407 3.086364 3.069406 3.069406 3.069407 3.069406 3.069406 3.069406 3.069407 3.069406 3.069406 3.069406 3.069407 3.069405 3.08637 3.0694 3.08637 3.0694 3.08637 3.08636 3.10332 3.08637 3.10332 3.12028 3.10332 l 7.95333,0.27133 7.29196,0.79701 6.64755,1.30576 6.07098,1.76362 5.47745,2.18756 4.93479,2.59455 4.42605,2.96763 3.91731,3.30678 3.44248,3.59506 3.01853,3.88335 2.57763,4.12076 2.20454,4.34121 1.84843,4.51079 1.49231,4.66341 1.18706,4.76516 0.91573,4.8669 0.64441,4.90082 0.40699,4.93474 0.22046,4.91778 0.0339,4.8669 -0.1187,4.79908 -0.23741,4.68036 -0.35612,4.56167 -0.407,4.37512 -0.45786,4.17164 -0.47483,3.95118 -0.47482,3.67985 -0.44091,3.37461 -0.39004,3.05242 -0.28829,2.67934 -0.18653,2.28931 -0.0339,1.88232 v 0 h 16.8563 l 2.10279,-9.05549 2.1028,-9.07246 2.1028,-9.10636 2.08584,-9.12333 2.1028,-9.1742 2.08584,-9.19116 2.06888,-9.20811 2.08584,-9.24203 2.06888,-9.25899 2.08584,-9.27595 2.06888,-9.27595 2.06888,-9.2929 2.06888,-9.30986 2.05193,-9.30987 2.06888,-9.32682 2.06888,-9.32682 2.06888,-9.30986 2.05193,-9.32682 2.06888,-9.30986 2.06888,-9.30987 2.06888,-9.2929 2.06888,-9.29291 2.06888,-9.27594 2.08584,-9.24204 2.06888,-9.24203 2.08584,-9.208112 2.08584,-9.191158 2.08584,-9.1742 2.1028,-9.140284 2.1028,-9.106368 2.1028,-9.072453 2.10279,-9.038537 -0.71223,6.834016 -0.59354,6.952721 -0.42395,7.071425 -0.28828,7.173173 -0.10175,7.224047 0.10175,7.27492 0.28828,7.291878 0.49179,7.291882 0.72919,7.25796 0.96661,7.20709 1.23794,7.13925 1.47535,7.05447 1.78059,6.93576 2.06888,6.78315 2.37413,6.61356 2.69633,6.44399 3.01853,6.22353 3.37465,5.98612 3.74773,5.73176 4.10385,5.44347 4.49388,5.15519 4.90088,4.81603 5.30786,4.47687 5.74878,4.1038 6.17273,3.69681 6.6306,3.28983 7.10542,2.84892 7.58024,2.3741 8.07203,1.88232 8.58077,1.39054 9.10647,0.83094 9.63217,0.28828 v 0 h 146.28011 v -2.73021 H 390.17071 l -4.79912,-0.0678 -4.90088,-0.23741 -4.98566,-0.40699 -5.01959,-0.62744 -5.03654,-0.86485 -5.07045,-1.11922 -5.03654,-1.42446 -5.01958,-1.7297 -4.95175,-2.06886 -4.90088,-2.42497 -4.78217,-2.83197 -4.68042,-3.23895 -4.56171,-3.69681 -4.39213,-4.15467 -4.2056,-4.64646 -4.01906,-5.17214 -3.81556,-5.7148 -3.56119,-6.29136 -3.30682,-6.88489 -3.03549,-7.51233 -2.7472,-8.17369 -2.425,-8.83504 -2.06888,-9.53032 -1.72972,-10.27646 -1.33969,-11.00565 -0.94965,-11.802664 -0.5257,-12.599686 -0.0848,-13.44758 0.37308,-14.278514 0.8479,-15.177281 1.35665,-16.076047 1.88234,-17.0087291 v 0 h -19.38305 l -1.98409,8.3941381 -2.01801,8.495886 -2.00105,8.546759 -2.018,8.631549 -2.01801,8.682422 -2.03497,8.750253 -2.03496,8.801127 -2.03497,8.835043 -2.03496,8.885916 -2.05193,8.919832 -2.03496,8.953748 -2.05192,8.970708 -2.05193,9.00462 -2.05192,9.02158 -2.05193,9.02158 -2.05192,9.02158 -2.05192,9.03853 -2.05193,9.02158 -2.05192,9.00462 -2.05192,9.00463 -2.03497,8.9707 -2.05192,8.95375 -2.03497,8.91983 -2.03496,8.88592 -2.03497,8.852 -2.03496,8.78417 -2.01801,8.75025 -2.01801,8.68242 -2.01801,8.63155 -2.00105,8.56372 -2.00104,8.47893 -2.00105,8.41109 -0.15263,-0.33916 -0.13566,-0.66135 -0.10175,-0.9666 -0.0848,-1.22096 -0.11871,-1.4923 -0.13566,-1.7297 -0.18654,-1.93319 -0.25437,-2.11973 -0.33916,-2.28932 -0.42395,-2.42497 -0.54266,-2.56064 -0.69528,-2.66238 -0.83094,-2.74717 -1.00053,-2.79805 -1.1701,-2.84892 -1.39056,-2.84892 -1.61102,-2.86587 -1.83147,-2.81501 -2.10279,-2.78109 -2.37413,-2.6963 -2.64545,-2.62846 -2.96766,-2.49281 -3.27291,-2.35714 -3.62902,-2.22148 -3.98514,-2.01798 -4.35822,-1.83145 -4.73129,-1.611 -5.15525,-1.35663 -5.59615,-1.10226 -6.02011,-0.81397 -6.47797,-0.49178 -6.96976,-0.18654 v 0 z"
         style="fill:#4781d0;fill-opacity:1;fill-rule:nonzero;stroke:none" />
      <path
         id="path2406"
         d="m 248.01142,81.567285 0.10174,0.152621 0.0678,0.152621 0.0678,0.15262 0.0339,0.135663 0.017,0.135663 v 0.135663 l -0.017,0.135663 -0.0339,0.135663 -0.0509,0.118705 -0.0678,0.135662 -0.0678,0.118705 -0.10175,0.118705 -0.10175,0.118705 -0.10174,0.101747 -0.11871,0.118705 -0.13566,0.101748 -0.13567,0.101747 -0.13566,0.101747 -0.13567,0.101747 -0.15262,0.101747 -0.15262,0.08479 -0.15263,0.08479 -0.15262,0.08479 -0.16958,0.08479 -0.15262,0.08479 -0.15262,0.06783 -0.13567,0.08479 -0.15262,0.06783 -0.13566,0.06783 -0.13567,0.06783 -0.1187,0.05087 -0.11871,0.06783 -0.37308,0.152621 -0.37307,0.135663 -0.37308,0.152621 -0.37308,0.15262 -0.37308,0.152621 -0.35611,0.135663 -0.37308,0.135663 -0.37308,0.152621 -0.35612,0.135662 -0.37307,0.135663 -0.35612,0.135663 -0.37308,0.135663 -0.35612,0.135663 -0.37308,0.118705 -0.37307,0.135663 -0.35612,0.118705 -0.37308,0.118705 -0.37308,0.118705 -0.37307,0.118705 -0.37308,0.118705 -0.37308,0.101747 -0.37307,0.101747 -0.39004,0.101747 -0.37308,0.101747 -0.39003,0.101747 -0.39004,0.101747 -0.39003,0.08479 -0.39004,0.08479 -0.39003,0.08479 -0.407,0.06783 -0.40699,0.08479 -0.40699,0.06783 -1.71276,0.23741 -2.74721,0.220452 -3.66294,0.254368 -4.56171,0.305242 -5.34178,0.373072 -6.07098,0.47482 -6.73235,0.593525 -7.32587,0.763104 -7.81766,0.915724 -8.27553,1.136176 -8.6486,1.373587 -8.95385,1.610996 -9.1743,1.916238 -9.34389,2.204512 -9.42867,2.54368 -9.44563,2.91675 -9.39476,3.28983 -9.25909,3.71377 -9.072555,4.15467 -8.801226,4.61254 -8.462065,5.10431 -8.055072,5.63001 -7.563288,6.1557 -7.020631,6.74923 -6.410141,7.32579 -5.697903,7.9702 -4.934792,8.59763 -4.103847,9.27595 -3.20507,9.98817 -2.221504,10.70041 -1.170105,11.46351 -0.05087,12.24357 0.135664,4.17163 0.474825,4.37513 0.847903,4.56166 1.220979,4.73125 1.594056,4.8669 1.984091,4.98561 2.374127,5.0704 2.781119,5.17214 3.188113,5.20607 3.595105,5.25693 4.019057,5.25694 4.459966,5.25693 4.900875,5.22302 5.324827,5.18911 5.799651,5.10431 6.257519,5.00257 6.715386,4.90082 7.190212,4.76516 7.681994,4.59557 8.17377,4.426 8.66557,4.23947 9.15734,4.00205 9.68304,3.76465 10.20875,3.49331 10.71748,3.222 11.26014,2.91675 11.8028,2.59455 12.36242,2.23844 12.90507,1.86536 13.48165,1.47533 14.04126,1.06835 14.61784,0.62744 15.90664,-0.0509 15.21137,-0.57657 14.48217,-1.0853 13.80385,-1.56013 13.14248,-2.01798 12.46417,-2.44193 11.8028,-2.83196 11.17535,-3.18808 10.5479,-3.54419 9.95438,-3.84944 9.32692,-4.15467 8.76731,-4.39209 8.17378,-4.62949 7.63112,-4.83299 7.07151,-5.00257 6.5458,-5.15518 6.02011,-5.2739 5.51136,-5.37564 5.01958,-5.44347 4.5278,-5.47739 4.06993,-5.49434 3.61207,-5.47739 3.17115,-5.42651 2.73025,-5.35869 2.32325,-5.25693 1.91626,-5.13823 1.52622,-4.98561 1.15315,-4.81603 0.78007,-4.59558 0.44091,-4.35817 0.0848,-4.1038 -0.22046,-3.81552 -0.017,-2.15364 -0.11871,-2.54368 -0.27133,-2.88284 -0.44091,-3.20503 -0.61049,-3.51028 -0.83094,-3.7816 -1.06836,-4.03597 -1.30577,-4.25642 -1.59406,-4.47688 -1.88234,-4.62949 -2.20454,-4.79907 -2.54371,-4.91778 -2.91679,-5.01953 -3.30681,-5.08735 -3.71382,-5.15519 -4.13776,-5.17215 -4.59563,-5.17214 -5.07046,-5.15519 -5.57919,-5.12127 -6.1049,-5.03649 -6.63059,-4.93473 -7.20717,-4.81603 -7.8007,-4.68037 -8.4112,-4.49383 -9.03863,-4.3073 -9.70001,-4.08684 -10.37832,-3.83248 -11.0736,-3.56115 -11.8028,-3.27286 -12.54896,-2.950667 -13.31206,-2.594552 -14.1091,-2.238437 0.11871,-0.203494 0.11871,-0.186537 0.15262,-0.186536 0.15262,-0.186536 0.15262,-0.169579 0.16958,-0.169579 0.18654,-0.15262 0.18654,-0.152621 0.2035,-0.152621 0.22045,-0.15262 0.22046,-0.152621 0.23741,-0.135663 0.23741,-0.135663 0.25437,-0.135663 0.25437,-0.135662 0.27133,-0.135663 0.27133,-0.118705 0.28829,-0.135663 0.28828,-0.135663 0.28829,-0.118705 0.30525,-0.135663 0.3222,-0.118705 0.3222,-0.135663 0.3222,-0.135663 0.33917,-0.135662 0.33916,-0.118705 0.35612,-0.152621 0.35611,-0.135663 0.35612,-0.135663 0.37308,-0.15262 0.37308,-0.152621 0.37307,-0.152621 0.35612,-0.101747 0.37308,-0.08479 0.35612,-0.101747 0.35612,-0.08479 0.35612,-0.101747 0.37307,-0.08479 0.35612,-0.101747 0.35612,-0.08479 0.35612,-0.08479 0.35612,-0.101747 0.37308,-0.08479 0.35612,-0.08479 0.35611,-0.06783 0.37308,-0.08479 0.35612,-0.06783 0.35612,-0.08479 0.37308,-0.06783 0.37307,-0.06783 0.35612,-0.06783 0.37308,-0.05087 0.37308,-0.05087 0.37307,-0.06783 0.37308,-0.03392 0.39004,-0.05087 0.37307,-0.03392 0.39004,-0.03391 0.37307,-0.03392 0.39004,-0.03392 0.39003,-0.01696 0.407,-0.01696 h 0.39003 0.407 l 3.51031,0.237409 4.10385,0.423947 4.6465,0.610483 5.13829,0.813977 5.5792,1.017471 5.96923,1.237924 6.32535,1.458375 6.6306,1.678828 6.90192,1.933195 7.10542,2.187564 7.275,2.441931 7.39371,2.696301 7.46154,2.96762 7.49546,3.25591 7.4785,3.54419 7.42762,3.84943 7.29196,4.13772 7.15629,4.45992 6.9528,4.78211 6.69843,5.10432 6.39318,5.44347 6.07099,5.79959 5.66398,6.13874 5.24004,6.51182 4.76521,6.88489 4.22255,7.25796 3.66294,7.63103 3.05245,8.03803 2.37412,8.44501 1.66189,8.852 0.91574,9.27595 0.10175,9.68293 -0.0678,2.50976 -0.25437,2.91676 -0.47482,3.30678 -0.71224,3.66289 -1.01748,3.9851 -1.30577,4.27338 -1.64493,4.5447 -2.01801,4.78212 -2.425,4.98561 -2.83199,5.15519 -3.28986,5.30781 -3.78165,5.42651 -4.27343,5.49435 -4.83304,5.56217 -5.39266,5.59609 -5.98619,5.57914 -6.63059,5.54522 -7.27501,5.49434 -7.97028,5.3926 -8.66556,5.25694 -9.42867,5.10431 -10.19179,4.93474 -10.98881,4.71428 -11.83672,4.45992 -12.68461,4.18859 -13.56644,3.88335 -14.49913,3.56115 -15.44878,3.18807 -16.41539,2.79805 -17.41591,2.3741 -18.45035,1.91624 -19.51871,1.42446 -6.80018,0.1187 -7.30892,-0.0848 -7.78374,-0.25437 -8.2077,-0.45786 -8.58077,-0.67831 -8.90297,-0.89877 -9.19126,-1.13618 -9.41172,-1.37358 -9.59825,-1.62796 -9.75088,-1.88232 -9.85262,-2.1706 -9.88654,-2.44193 -9.88654,-2.74718 -9.83567,-3.05241 -9.73392,-3.35766 -9.61521,-3.69681 -9.41171,-4.01901 -9.19126,-4.37513 -8.902974,-4.73124 -8.563813,-5.08736 -8.207694,-5.47738 -7.783743,-5.85046 -7.308918,-6.25745 -6.783218,-6.66444 -6.240561,-7.08838 -5.613113,-7.51233 -4.968707,-7.95324 -4.273428,-8.39414 -3.510315,-8.86895 -2.7302458,-9.32682 -1.865385,-9.8186 -0.9835666,-10.29342 0.016958,-5.68088 0.4069931,-5.7148 0.7970282,-5.74871 1.1870632,-5.78263 1.6110143,-5.79959 2.0349656,-5.78263 2.458916,-5.78263 2.916784,-5.74871 3.357693,-5.7148 3.832519,-5.64696 4.290385,-5.59609 4.799127,-5.51131 5.29091,-5.40955 5.799652,-5.32477 6.325351,-5.1891 6.85105,-5.05345 7.393708,-4.91777 7.936366,-4.76516 8.512938,-4.57862 9.072555,-4.40904 9.666086,-4.20555 10.259609,-4.00206 10.87011,-3.7816 11.49756,-3.527231 12.10804,-3.289824 12.75245,-3.035456 13.39686,-2.747173 14.05822,-2.458889 14.73654,-2.170605 15.41486,-1.831449 16.11015,-1.526207 16.82238,-1.18705 z"
         style="fill:#4781d0;fill-opacity:1;fill-rule:nonzero;stroke:none" />
    </g>
  </g>
</svg>
